<svg width="51" height="50" viewBox="0 0 51 50" fill="none" xmlns="http://www.w3.org/2000/svg">
<g clip-path="url(#clip0_1898_51147)">
<path d="M38.049 16.7078L37.2318 16.5059C37.2318 16.5059 36.4243 6.50723 25.5219 6.29092C14.6196 6.0746 13.8697 16.5059 13.8697 16.5059L12.9227 16.4818C8.68768 16.7318 8.26947 18.3806 8.26947 20.6832L7.83203 31.7682L8.26947 39.5315C8.26947 41.8341 10.6874 43.4589 12.99 43.4589L38.6451 43.7089C40.9477 43.7089 42.8224 41.8341 42.8224 39.5315V20.6832C42.8224 18.1018 40.3468 16.7078 38.0442 16.7078H38.049ZM25.6325 8.65598C30.4395 8.58387 35.1552 13.3957 35.0735 16.5011H16.2107C16.2107 16.5011 17.7778 12.8381 18.095 12.3189C20.7245 7.98299 25.6373 8.65117 25.6373 8.65117L25.6325 8.65598ZM17.7153 18.9286L18.196 18.8421H37.7462C38.7605 18.8421 40.491 19.3228 40.491 20.6832L40.1257 30.6385L40.491 39.5267C40.491 40.541 39.6642 41.363 38.6499 41.363L34.2851 41.5938L28.2523 41.7332L17.4653 41.5024L14.6244 41.4496L13.7879 41.363C12.7737 41.363 10.6057 40.5362 10.6057 39.5267C10.6057 39.5267 10.572 34.3928 10.6057 32.6094C10.673 28.9513 10.6057 20.6784 10.6057 20.6784C10.6057 19.6641 11.5959 19.318 12.6102 19.318L14.8215 19.0536L17.7105 18.9286H17.7153Z" fill="#323231"/>
<path d="M28.4697 39.6569H22.2253C21.1918 39.6569 20.2112 38.7051 20.7736 36.7342C20.7736 36.7342 22.4993 32.1723 23.3165 29.6967C22.009 27.7883 21.8504 26.5 21.8504 26.5C21.4081 22.9092 24.4558 21.9478 25.5999 21.9478C28.5658 22.0968 30.4694 25.2598 27.7534 29.6246L30.4453 36.6861C31.6567 39.6569 29.0801 39.6569 28.4745 39.6569H28.4697ZM25.7008 38.1234C25.7008 38.1234 28.71 38.2051 28.7581 37.4216C28.8398 36.1189 27.5707 33.3164 27.5707 33.3164C27.2054 32.0858 26.3065 29.5525 26.3065 29.5525C26.3065 29.5525 29.1763 23.8321 25.6431 23.8321C21.4754 23.8321 24.6961 29.7207 24.6961 29.7207C24.6961 29.7207 24.4894 30.759 23.7059 33.2106C23.7059 33.2106 22.033 37.6331 22.6435 38.0225C23.0473 38.2821 25.7056 38.1186 25.7056 38.1186L25.7008 38.1234Z" fill="#323231"/>
</g>
<defs>
<clipPath id="clip0_1898_51147">
<rect width="35" height="37.4179" fill="white" transform="translate(7.83203 6.29102)"/>
</clipPath>
</defs>
</svg>
