<svg width="50" height="50" viewBox="0 0 50 50" fill="none" xmlns="http://www.w3.org/2000/svg">
<rect width="50" height="50" fill="#E1E0E0"/>
<g id="USPs | Desktop">
<rect width="1920" height="1080" transform="translate(-1125 -695)" fill="white"/>
<g id="angebote">
<g id="Group 15">
<g id="Group">
<path id="Vector" d="M32.6575 17.1332C27.5982 22.0168 22.6612 27.0226 17.8465 32.1507C17.0822 32.9684 18.3127 34.2065 19.0769 33.3811C23.8916 28.253 28.8287 23.2472 33.888 18.3637C34.6981 17.5841 33.46 16.3537 32.6575 17.1332V17.1332Z" fill="#323231"/>
<path id="Vector_2" d="M21.2379 23.2474C23.6224 22.9264 23.7981 20.649 23.332 18.746C23.3472 18.5626 23.2785 18.3715 23.1256 18.2034C23.0721 18.1346 23.011 18.0734 22.9422 18.0276C21.8035 17.0646 20.4125 16.2545 18.8917 16.8965C17.4626 17.5003 16.278 19.2962 16.7824 20.8247C17.4091 22.7201 19.3655 23.4919 21.2379 23.2397V23.2474ZM19.8776 18.4326C20.6112 18.3409 21.1539 18.7842 21.6583 19.2275C21.941 20.3509 22.0557 21.5431 20.5425 21.5508C19.74 21.5508 18.2879 21.0999 18.3567 20.0146C18.3949 19.3879 19.2738 18.5014 19.8776 18.425V18.4326Z" fill="#323231"/>
<path id="Vector_3" d="M32.6259 27.4663C32.6259 27.4663 32.58 27.4357 32.5571 27.4204C32.5265 27.3898 32.4883 27.3593 32.4501 27.3363C31.9381 27.0001 31.3878 26.618 30.7535 26.6256C29.7753 26.6256 28.9652 27.2981 28.3614 28.0089C27.108 29.4915 26.6266 31.3334 28.1321 32.8466C29.3014 34.0235 31.6094 33.863 32.7252 32.6861C34.2002 31.1346 34.2767 28.8954 32.6259 27.4739V27.4663ZM31.5177 31.4098C30.8681 32.067 29.6453 32.0976 29.1333 31.2722C28.5907 30.3933 29.3244 29.3616 30.0351 28.7655C30.2338 28.5974 30.4784 28.3986 30.7535 28.3681C30.6847 28.3681 30.6006 28.3299 30.7764 28.3681C30.9828 28.4139 31.2273 28.5974 31.4337 28.7426C32.2667 29.4915 32.3508 30.5691 31.5177 31.4098V31.4098Z" fill="#323231"/>
</g>
<path id="Star 1" d="M25 1.57856L29.2732 6.79794C29.5452 7.13008 29.9987 7.25162 30.4003 7.09994L36.7107 4.71644L37.8018 11.3732C37.8712 11.7968 38.2032 12.1288 38.6268 12.1983L45.2836 13.2893L42.9001 19.5997C42.7484 20.0013 42.8699 20.4548 43.2021 20.7268L48.4214 25L43.2021 29.2732C42.8699 29.5452 42.7484 29.9987 42.9001 30.4003L45.2836 36.7107L38.6268 37.8018C38.2032 37.8712 37.8712 38.2032 37.8018 38.6268L36.7107 45.2836L30.4003 42.9001C29.9987 42.7484 29.5452 42.8699 29.2732 43.2021L25 48.4214L20.7268 43.2021C20.4548 42.8699 20.0013 42.7484 19.5997 42.9001L13.2893 45.2836L12.1983 38.6268C12.1288 38.2032 11.7968 37.8712 11.3732 37.8018L4.71644 36.7107L7.09994 30.4003C7.25162 29.9987 7.13008 29.5452 6.79794 29.2732L1.57856 25L6.79794 20.7268C7.13008 20.4548 7.25162 20.0013 7.09994 19.5997L4.71644 13.2893L11.3732 12.1983C11.7968 12.1288 12.1288 11.7968 12.1983 11.3732L13.2893 4.71644L19.5997 7.09994C20.0013 7.25162 20.4548 7.13008 20.7268 6.79794L25 1.57856Z" stroke="#323231" stroke-width="2" stroke-linejoin="round"/>
</g>
</g>
</g>
</svg>
