<svg width="51" height="50" viewBox="0 0 51 50" fill="none" xmlns="http://www.w3.org/2000/svg">
<rect width="51" height="50" fill="#E1E0E0"/>
<g id="USPs | Desktop">
<rect width="1920" height="1080" transform="translate(-957 -752)" fill="white"/>
<g id="beratung">
<g id="gluehlampe_idee 2" clip-path="url(#clip0_555_42398)">
<g id="Vector">
<mask id="path-1-inside-1_555_42398" fill="white">
<path d="M26.9532 10.8162C20.8869 10.2782 13.9021 12.57 11.466 19.2268C10.3332 22.319 10.46 25.2581 11.9033 27.9741C12.5332 29.1638 13.163 30.4103 14.0902 31.4731C15.8091 33.4456 17.3005 35.5012 17.0687 38.2217C16.4301 38.9302 16.3339 39.7875 16.8063 40.531C16.2858 41.1171 16.1896 42.1143 16.5744 43.1246C16.9025 43.7063 17.4711 44.2443 18.219 44.6816C18.219 44.7254 18.219 44.7691 18.2277 44.8128C18.4333 46.2387 18.8225 47.6689 20.2615 48.4605C21.2455 48.9985 22.5577 49.309 23.7823 49.309C24.0535 49.309 24.3246 49.2915 24.5827 49.2609C27.1544 48.946 28.3615 47.0347 28.1735 43.5838C28.3222 43.4701 28.4709 43.352 28.6196 43.2252L28.6721 43.1727C28.812 43.0327 28.9564 42.8884 29.0832 42.731C29.6605 42.0224 29.9317 41.0865 29.7786 40.3473C29.6868 39.8924 29.4375 39.5382 29.0613 39.3151C29.0876 39.197 29.1007 39.0833 29.1051 38.974C29.2756 38.8777 29.4068 38.5016 29.7086 37.605C30.3122 35.7987 30.8764 32.7808 32.9014 30.6071C34.9264 28.4334 36.6147 25.3193 36.8377 22.7345C37.4107 16.1346 33.4175 11.3979 26.9576 10.8249L26.9532 10.8162ZM27.2113 44.288C27.1675 46.6454 26.319 47.7869 24.4908 47.975C23.4018 48.0887 22.1159 47.8919 21.1362 47.4589C20.174 47.039 19.6448 46.3874 19.3474 45.2458C21.8754 45.9544 24.7183 45.6088 27.2113 44.2836V44.288ZM27.8411 40.0062C26.8439 41.2395 21.9978 41.5282 19.343 40.5091C18.6476 40.2423 17.6547 39.6344 17.5891 38.904C18.0877 39.1052 18.8531 39.2976 19.4217 39.3413C19.6098 39.3588 19.7979 39.372 19.9728 39.3938L20.5676 39.4638C22.8376 39.7787 26.3365 39.7787 27.8761 39.0221C28.086 39.3895 28.0772 39.7131 27.8411 40.0018V40.0062ZM26.0347 26.0366C24.867 29.9423 25.02 35.4094 24.6526 38.1342C24.6352 38.2698 22.1159 38.5497 21.871 37.9811C21.5211 37.1589 20.5939 29.4874 19.3299 25.6867C19.8503 25.7829 20.3883 25.3281 20.8694 25.1968C21.8579 25.7086 23.5636 25.7173 24.6483 25.2187C25.1731 25.6648 25.4574 25.7917 26.0347 26.041V26.0366ZM17.6154 41.3183C19.2293 42.3636 21.1449 42.7222 23.8173 42.4773C25.4224 42.3286 27.5262 41.8212 28.7289 40.8459C28.8164 41.1652 28.6939 41.6332 28.5277 41.9699C27.653 43.7194 24.2022 44.1961 23.2574 44.253C21.5123 44.3536 20.2658 44.2661 19.6579 43.9993C18.9012 43.6713 17.1561 42.8403 17.6198 41.3139L17.6154 41.3183ZM26.1878 38.0905C25.9779 37.5613 26.3278 28.6827 28.3528 24.1122C28.554 23.6529 28.3265 23.2374 27.9985 23.0625C27.8935 23.0056 27.7755 22.975 27.653 22.975C27.4256 22.975 27.1894 23.0887 27.0144 23.373C26.892 23.7448 26.717 23.981 26.494 24.0772C26.3147 24.1559 26.0916 24.1515 25.8292 24.0553C25.9385 23.7885 26.0041 23.5173 26.026 23.2374C26.0391 23.045 25.9604 22.8482 25.8029 22.6907C25.6455 22.5333 25.4399 22.4502 25.2518 22.4633C24.2678 22.5376 23.5024 23.2855 23.4761 24.1821C23.1656 24.2915 22.7938 24.3658 22.3827 24.4096C22.6233 23.7929 22.5402 23.0494 22.1596 22.577C21.8272 22.1659 21.3286 22.0172 20.7557 22.1659C20.279 22.2883 19.9291 22.5508 19.7454 22.9182C19.566 23.2724 19.5486 23.7273 19.6929 24.1865C19.1243 24.0116 18.735 23.7666 18.5863 23.4955L18.5032 23.2549C18.3414 22.7913 17.9478 22.6601 17.6241 22.7345C17.2742 22.8176 16.9593 23.1587 17.0249 23.6529C17.0599 23.9066 17.143 24.1515 17.2699 24.3658C18.805 28.8051 20.1915 33.1788 20.3358 37.8499C19.7716 38.038 19.3342 38.038 18.5251 37.7537C18.7525 34.8758 16.8806 32.584 15.0655 30.3665C13.8059 28.827 13.3335 27.1125 12.7693 25.3543C11.6059 21.6979 12.9618 18.0546 15.3892 15.7584C18.6694 12.6487 23.5155 12.3688 26.1135 12.4825C30.1154 12.6531 35.0751 16.5894 35.0751 20.985C35.0751 24.0466 35.0751 25.796 32.4509 28.8576C29.022 32.8552 28.0598 37.9024 28.0073 37.9505C27.8061 38.1298 26.3278 38.4797 26.1791 38.0992L26.1878 38.0905Z"/>
</mask>
<path d="M26.9532 10.8162C20.8869 10.2782 13.9021 12.57 11.466 19.2268C10.3332 22.319 10.46 25.2581 11.9033 27.9741C12.5332 29.1638 13.163 30.4103 14.0902 31.4731C15.8091 33.4456 17.3005 35.5012 17.0687 38.2217C16.4301 38.9302 16.3339 39.7875 16.8063 40.531C16.2858 41.1171 16.1896 42.1143 16.5744 43.1246C16.9025 43.7063 17.4711 44.2443 18.219 44.6816C18.219 44.7254 18.219 44.7691 18.2277 44.8128C18.4333 46.2387 18.8225 47.6689 20.2615 48.4605C21.2455 48.9985 22.5577 49.309 23.7823 49.309C24.0535 49.309 24.3246 49.2915 24.5827 49.2609C27.1544 48.946 28.3615 47.0347 28.1735 43.5838C28.3222 43.4701 28.4709 43.352 28.6196 43.2252L28.6721 43.1727C28.812 43.0327 28.9564 42.8884 29.0832 42.731C29.6605 42.0224 29.9317 41.0865 29.7786 40.3473C29.6868 39.8924 29.4375 39.5382 29.0613 39.3151C29.0876 39.197 29.1007 39.0833 29.1051 38.974C29.2756 38.8777 29.4068 38.5016 29.7086 37.605C30.3122 35.7987 30.8764 32.7808 32.9014 30.6071C34.9264 28.4334 36.6147 25.3193 36.8377 22.7345C37.4107 16.1346 33.4175 11.3979 26.9576 10.8249L26.9532 10.8162ZM27.2113 44.288C27.1675 46.6454 26.319 47.7869 24.4908 47.975C23.4018 48.0887 22.1159 47.8919 21.1362 47.4589C20.174 47.039 19.6448 46.3874 19.3474 45.2458C21.8754 45.9544 24.7183 45.6088 27.2113 44.2836V44.288ZM27.8411 40.0062C26.8439 41.2395 21.9978 41.5282 19.343 40.5091C18.6476 40.2423 17.6547 39.6344 17.5891 38.904C18.0877 39.1052 18.8531 39.2976 19.4217 39.3413C19.6098 39.3588 19.7979 39.372 19.9728 39.3938L20.5676 39.4638C22.8376 39.7787 26.3365 39.7787 27.8761 39.0221C28.086 39.3895 28.0772 39.7131 27.8411 40.0018V40.0062ZM26.0347 26.0366C24.867 29.9423 25.02 35.4094 24.6526 38.1342C24.6352 38.2698 22.1159 38.5497 21.871 37.9811C21.5211 37.1589 20.5939 29.4874 19.3299 25.6867C19.8503 25.7829 20.3883 25.3281 20.8694 25.1968C21.8579 25.7086 23.5636 25.7173 24.6483 25.2187C25.1731 25.6648 25.4574 25.7917 26.0347 26.041V26.0366ZM17.6154 41.3183C19.2293 42.3636 21.1449 42.7222 23.8173 42.4773C25.4224 42.3286 27.5262 41.8212 28.7289 40.8459C28.8164 41.1652 28.6939 41.6332 28.5277 41.9699C27.653 43.7194 24.2022 44.1961 23.2574 44.253C21.5123 44.3536 20.2658 44.2661 19.6579 43.9993C18.9012 43.6713 17.1561 42.8403 17.6198 41.3139L17.6154 41.3183ZM26.1878 38.0905C25.9779 37.5613 26.3278 28.6827 28.3528 24.1122C28.554 23.6529 28.3265 23.2374 27.9985 23.0625C27.8935 23.0056 27.7755 22.975 27.653 22.975C27.4256 22.975 27.1894 23.0887 27.0144 23.373C26.892 23.7448 26.717 23.981 26.494 24.0772C26.3147 24.1559 26.0916 24.1515 25.8292 24.0553C25.9385 23.7885 26.0041 23.5173 26.026 23.2374C26.0391 23.045 25.9604 22.8482 25.8029 22.6907C25.6455 22.5333 25.4399 22.4502 25.2518 22.4633C24.2678 22.5376 23.5024 23.2855 23.4761 24.1821C23.1656 24.2915 22.7938 24.3658 22.3827 24.4096C22.6233 23.7929 22.5402 23.0494 22.1596 22.577C21.8272 22.1659 21.3286 22.0172 20.7557 22.1659C20.279 22.2883 19.9291 22.5508 19.7454 22.9182C19.566 23.2724 19.5486 23.7273 19.6929 24.1865C19.1243 24.0116 18.735 23.7666 18.5863 23.4955L18.5032 23.2549C18.3414 22.7913 17.9478 22.6601 17.6241 22.7345C17.2742 22.8176 16.9593 23.1587 17.0249 23.6529C17.0599 23.9066 17.143 24.1515 17.2699 24.3658C18.805 28.8051 20.1915 33.1788 20.3358 37.8499C19.7716 38.038 19.3342 38.038 18.5251 37.7537C18.7525 34.8758 16.8806 32.584 15.0655 30.3665C13.8059 28.827 13.3335 27.1125 12.7693 25.3543C11.6059 21.6979 12.9618 18.0546 15.3892 15.7584C18.6694 12.6487 23.5155 12.3688 26.1135 12.4825C30.1154 12.6531 35.0751 16.5894 35.0751 20.985C35.0751 24.0466 35.0751 25.796 32.4509 28.8576C29.022 32.8552 28.0598 37.9024 28.0073 37.9505C27.8061 38.1298 26.3278 38.4797 26.1791 38.0992L26.1878 38.0905Z" fill="#323231" stroke="#323231" stroke-width="2" mask="url(#path-1-inside-1_555_42398)"/>
</g>
<path id="Vector_2" d="M7.46105 17.1184C5.26108 16.5148 2.99551 16.0818 0.725568 15.8369C0.362552 15.7976 0.0432729 16.06 0.00390976 16.4186C-0.0354534 16.7773 0.226968 17.1009 0.58561 17.1403C2.78558 17.3808 4.98117 17.7963 7.11553 18.3824C7.17238 18.3999 7.23362 18.4043 7.29047 18.4043C7.57914 18.4043 7.84156 18.2118 7.92466 17.9232C8.02088 17.5733 7.81532 17.2146 7.46542 17.1184H7.46105Z" fill="#323231"/>
<path id="Vector_3" d="M11.532 11.1266C11.6064 11.1266 11.6851 11.1135 11.7595 11.0872C12.1006 10.9604 12.2712 10.5843 12.1444 10.2431C11.5058 8.533 10.6967 6.87537 9.73883 5.32271C9.54639 5.01655 9.14401 4.92033 8.83785 5.1084C8.53169 5.30084 8.43547 5.70322 8.62354 6.00938C9.53764 7.48769 10.3074 9.06659 10.9153 10.698C11.0116 10.9604 11.2652 11.1266 11.532 11.1266Z" fill="#323231"/>
<path id="Vector_4" d="M24.1481 8.77809C24.2137 8.78684 24.2793 8.77809 24.3405 8.76935C24.6161 8.71686 24.8391 8.48943 24.8697 8.19202C25.1365 5.64653 25.0928 3.07918 24.7385 0.564308C24.686 0.205665 24.358 -0.0436349 23.9994 0.00447564C23.6407 0.0482125 23.3914 0.384987 23.4395 0.743629C23.7763 3.15353 23.82 5.61154 23.562 8.05206C23.5226 8.4107 23.7851 8.73436 24.1481 8.77372V8.77809Z" fill="#323231"/>
<path id="Vector_5" d="M43.4305 6.9498C43.2511 6.63489 42.8488 6.52555 42.5338 6.70487C40.6138 7.7983 38.8162 9.1104 37.1848 10.6018C36.918 10.8468 36.9005 11.2623 37.1455 11.5291C37.2767 11.669 37.4516 11.7434 37.6309 11.7434C37.7884 11.7434 37.9502 11.6865 38.0727 11.5684C39.6297 10.1426 41.3442 8.88734 43.1812 7.84203C43.4961 7.66271 43.6054 7.26033 43.4261 6.94543L43.4305 6.9498Z" fill="#323231"/>
<path id="Vector_6" d="M49.3425 20.3554C46.6089 20.3685 43.8229 20.2635 41.0893 20.0448C40.7219 20.0142 40.4114 20.2854 40.3852 20.6484C40.3546 21.0114 40.6257 21.3263 40.9887 21.3526C43.6217 21.5625 46.2896 21.6675 48.9357 21.6675C49.0757 21.6675 49.2156 21.6675 49.3556 21.6675C49.7186 21.6675 50.0117 21.3701 50.0073 21.007C50.0073 20.644 49.7142 20.3554 49.3512 20.3554H49.3425Z" fill="#323231"/>
</g>
</g>
</g>
<defs>
<clipPath id="clip0_555_42398">
<rect width="50" height="49.3002" fill="white"/>
</clipPath>
</defs>
</svg>
