<svg width="50" height="50" viewBox="0 0 50 50" fill="none" xmlns="http://www.w3.org/2000/svg">
<rect width="50" height="50" fill="#E1E0E0"/>
<g id="USPs | Desktop">
<rect width="1920" height="1080" transform="translate(-1405 -717)" fill="white"/>
<g id="inspiration">
<g id="kamera 2" clip-path="url(#clip0_555_42398)">
<g id="Group">
<g id="Vector">
<mask id="path-1-outside-1_555_42398" maskUnits="userSpaceOnUse" x="2.98438" y="6.5" width="44" height="37" fill="black">
<rect fill="white" x="2.98438" y="6.5" width="44" height="37"/>
<path d="M42.9679 12.5197L35.0784 12.2173C34.83 12.2173 34.5985 12.0828 34.4753 11.8672L32.9443 9.18787C32.3496 8.14696 30.8522 7.5 29.6525 7.5H20.9583C19.7596 7.5 17.9401 8.14696 17.3454 9.18787L15.8144 11.8672C15.6912 12.0828 15.4597 12.2173 15.2113 12.2173L14.8034 12.2481L14.7968 11.4676C14.7968 11.0578 14.7222 10.6106 14.5102 10.2932C14.1508 9.75547 13.7083 9.52209 13.0147 9.52209H10.3195C9.21603 9.52209 8.62882 10.2857 8.62882 11.3892V12.193L7.62338 12.2173C5.77681 12.2173 4.27471 12.7083 4.27471 14.5549L3.98438 25.4243L4.27564 39.1513C4.27564 40.9979 6.08301 42.2209 7.92959 42.2209L26.779 42.5009H42.6654C44.512 42.5009 45.8955 41.8829 45.8955 40.0363L46.015 15.5669C46.015 13.7203 44.8154 12.5207 42.9688 12.5207L42.9679 12.5197ZM10.1216 10.4146L12.9951 10.4631C13.1864 10.4631 13.4852 10.4958 13.6159 10.7124C13.7466 10.929 13.7092 11.3304 13.7092 11.5218V12.5188H9.62586V11.5218C9.62586 11.139 9.73882 10.4136 10.1216 10.4136V10.4146ZM44.6539 39.6162C44.6539 40.7421 43.7922 41.193 42.6663 41.193H8.46545C7.33958 41.193 5.58263 40.2772 5.58263 39.1513L5.20173 25.7426L5.58263 14.4401C5.58263 13.3142 6.49845 13.5242 7.62432 13.5242H15.2113C15.9274 13.5242 16.5939 13.1378 16.9487 12.516L18.4797 9.83669C18.8429 9.20188 19.7158 8.50357 20.4467 8.50357C20.4467 8.50357 24.5301 8.4541 25.8894 8.50357C26.9284 8.54185 29.9279 8.74537 29.9279 8.74537C30.6589 8.74537 31.7232 9.36338 32.0863 9.9982L33.3401 12.5169C33.6958 13.1387 34.8777 13.2899 35.5946 13.2899L42.6654 13.5252C43.7913 13.5252 44.7071 13.9798 44.7071 15.1057L44.9955 29.6552L44.6529 39.6172L44.6539 39.6162Z"/>
</mask>
<path d="M42.9679 12.5197L35.0784 12.2173C34.83 12.2173 34.5985 12.0828 34.4753 11.8672L32.9443 9.18787C32.3496 8.14696 30.8522 7.5 29.6525 7.5H20.9583C19.7596 7.5 17.9401 8.14696 17.3454 9.18787L15.8144 11.8672C15.6912 12.0828 15.4597 12.2173 15.2113 12.2173L14.8034 12.2481L14.7968 11.4676C14.7968 11.0578 14.7222 10.6106 14.5102 10.2932C14.1508 9.75547 13.7083 9.52209 13.0147 9.52209H10.3195C9.21603 9.52209 8.62882 10.2857 8.62882 11.3892V12.193L7.62338 12.2173C5.77681 12.2173 4.27471 12.7083 4.27471 14.5549L3.98438 25.4243L4.27564 39.1513C4.27564 40.9979 6.08301 42.2209 7.92959 42.2209L26.779 42.5009H42.6654C44.512 42.5009 45.8955 41.8829 45.8955 40.0363L46.015 15.5669C46.015 13.7203 44.8154 12.5207 42.9688 12.5207L42.9679 12.5197ZM10.1216 10.4146L12.9951 10.4631C13.1864 10.4631 13.4852 10.4958 13.6159 10.7124C13.7466 10.929 13.7092 11.3304 13.7092 11.5218V12.5188H9.62586V11.5218C9.62586 11.139 9.73882 10.4136 10.1216 10.4136V10.4146ZM44.6539 39.6162C44.6539 40.7421 43.7922 41.193 42.6663 41.193H8.46545C7.33958 41.193 5.58263 40.2772 5.58263 39.1513L5.20173 25.7426L5.58263 14.4401C5.58263 13.3142 6.49845 13.5242 7.62432 13.5242H15.2113C15.9274 13.5242 16.5939 13.1378 16.9487 12.516L18.4797 9.83669C18.8429 9.20188 19.7158 8.50357 20.4467 8.50357C20.4467 8.50357 24.5301 8.4541 25.8894 8.50357C26.9284 8.54185 29.9279 8.74537 29.9279 8.74537C30.6589 8.74537 31.7232 9.36338 32.0863 9.9982L33.3401 12.5169C33.6958 13.1387 34.8777 13.2899 35.5946 13.2899L42.6654 13.5252C43.7913 13.5252 44.7071 13.9798 44.7071 15.1057L44.9955 29.6552L44.6529 39.6172L44.6539 39.6162Z" fill="#323231"/>
<path d="M42.9679 12.5197L35.0784 12.2173C34.83 12.2173 34.5985 12.0828 34.4753 11.8672L32.9443 9.18787C32.3496 8.14696 30.8522 7.5 29.6525 7.5H20.9583C19.7596 7.5 17.9401 8.14696 17.3454 9.18787L15.8144 11.8672C15.6912 12.0828 15.4597 12.2173 15.2113 12.2173L14.8034 12.2481L14.7968 11.4676C14.7968 11.0578 14.7222 10.6106 14.5102 10.2932C14.1508 9.75547 13.7083 9.52209 13.0147 9.52209H10.3195C9.21603 9.52209 8.62882 10.2857 8.62882 11.3892V12.193L7.62338 12.2173C5.77681 12.2173 4.27471 12.7083 4.27471 14.5549L3.98438 25.4243L4.27564 39.1513C4.27564 40.9979 6.08301 42.2209 7.92959 42.2209L26.779 42.5009H42.6654C44.512 42.5009 45.8955 41.8829 45.8955 40.0363L46.015 15.5669C46.015 13.7203 44.8154 12.5207 42.9688 12.5207L42.9679 12.5197ZM10.1216 10.4146L12.9951 10.4631C13.1864 10.4631 13.4852 10.4958 13.6159 10.7124C13.7466 10.929 13.7092 11.3304 13.7092 11.5218V12.5188H9.62586V11.5218C9.62586 11.139 9.73882 10.4136 10.1216 10.4136V10.4146ZM44.6539 39.6162C44.6539 40.7421 43.7922 41.193 42.6663 41.193H8.46545C7.33958 41.193 5.58263 40.2772 5.58263 39.1513L5.20173 25.7426L5.58263 14.4401C5.58263 13.3142 6.49845 13.5242 7.62432 13.5242H15.2113C15.9274 13.5242 16.5939 13.1378 16.9487 12.516L18.4797 9.83669C18.8429 9.20188 19.7158 8.50357 20.4467 8.50357C20.4467 8.50357 24.5301 8.4541 25.8894 8.50357C26.9284 8.54185 29.9279 8.74537 29.9279 8.74537C30.6589 8.74537 31.7232 9.36338 32.0863 9.9982L33.3401 12.5169C33.6958 13.1387 34.8777 13.2899 35.5946 13.2899L42.6654 13.5252C43.7913 13.5252 44.7071 13.9798 44.7071 15.1057L44.9955 29.6552L44.6529 39.6172L44.6539 39.6162Z" stroke="#323231" stroke-width="0.8" mask="url(#path-1-outside-1_555_42398)"/>
</g>
<g id="Vector_2">
<mask id="path-2-outside-2_555_42398" maskUnits="userSpaceOnUse" x="12.7109" y="14.5864" width="25" height="25" fill="black">
<rect fill="white" x="12.7109" y="14.5864" width="25" height="25"/>
<path d="M25.1461 15.5864C18.8408 15.5864 13.7109 19.8154 13.7109 27.0216C13.7109 29.3863 14.1488 31.8714 15.3829 33.6965C17.4396 36.739 21.2055 38.4567 25.1461 38.4567C31.4513 38.4567 36.5812 33.3268 36.5812 27.0216C36.5812 23.5385 35.3816 20.3812 32.917 18.2816C30.9201 16.5807 27.9673 15.5864 25.1461 15.5864V15.5864ZM25.1461 37.1497C22.7422 37.1497 20.2878 36.6111 18.5486 35.2061C16.2483 33.3483 15.0179 30.2013 15.0179 27.0206C15.0179 21.4361 19.5615 16.8925 25.1461 16.8925C27.9337 16.8925 30.9864 17.7597 32.8199 19.5877C34.659 21.4221 35.2742 24.2237 35.2742 27.0206C35.2742 32.6052 30.7306 37.1488 25.1461 37.1488V37.1497Z"/>
</mask>
<path d="M25.1461 15.5864C18.8408 15.5864 13.7109 19.8154 13.7109 27.0216C13.7109 29.3863 14.1488 31.8714 15.3829 33.6965C17.4396 36.739 21.2055 38.4567 25.1461 38.4567C31.4513 38.4567 36.5812 33.3268 36.5812 27.0216C36.5812 23.5385 35.3816 20.3812 32.917 18.2816C30.9201 16.5807 27.9673 15.5864 25.1461 15.5864V15.5864ZM25.1461 37.1497C22.7422 37.1497 20.2878 36.6111 18.5486 35.2061C16.2483 33.3483 15.0179 30.2013 15.0179 27.0206C15.0179 21.4361 19.5615 16.8925 25.1461 16.8925C27.9337 16.8925 30.9864 17.7597 32.8199 19.5877C34.659 21.4221 35.2742 24.2237 35.2742 27.0206C35.2742 32.6052 30.7306 37.1488 25.1461 37.1488V37.1497Z" fill="#323231"/>
<path d="M25.1461 15.5864C18.8408 15.5864 13.7109 19.8154 13.7109 27.0216C13.7109 29.3863 14.1488 31.8714 15.3829 33.6965C17.4396 36.739 21.2055 38.4567 25.1461 38.4567C31.4513 38.4567 36.5812 33.3268 36.5812 27.0216C36.5812 23.5385 35.3816 20.3812 32.917 18.2816C30.9201 16.5807 27.9673 15.5864 25.1461 15.5864V15.5864ZM25.1461 37.1497C22.7422 37.1497 20.2878 36.6111 18.5486 35.2061C16.2483 33.3483 15.0179 30.2013 15.0179 27.0206C15.0179 21.4361 19.5615 16.8925 25.1461 16.8925C27.9337 16.8925 30.9864 17.7597 32.8199 19.5877C34.659 21.4221 35.2742 24.2237 35.2742 27.0206C35.2742 32.6052 30.7306 37.1488 25.1461 37.1488V37.1497Z" stroke="#323231" stroke-width="0.8" mask="url(#path-2-outside-2_555_42398)"/>
</g>
</g>
<path id="Vector_3" d="M18.2031 27.0215C18.2031 30.8491 20.7704 33.9635 25.1451 33.9635C26.5809 33.9635 28.0895 33.6974 29.1976 32.9487C31.0442 31.6996 32.0879 29.4142 32.0879 27.0215C32.0879 23.1939 28.9736 20.0796 25.146 20.0796C23.0315 20.0796 21.1149 20.8078 19.8406 22.3043C18.8081 23.516 18.2041 25.3094 18.2041 27.0225L18.2031 27.0215ZM30.7856 27.0215C30.7856 28.3602 30.4859 29.727 29.7036 30.6951C28.6692 31.9759 26.9169 32.6611 25.1451 32.6611C22.0354 32.6611 19.5045 30.1312 19.5045 27.0206C19.5045 25.4681 20.2196 23.9781 21.2381 22.9568C22.2594 21.9327 23.5879 21.38 25.1451 21.38C28.2547 21.38 30.7856 23.91 30.7856 27.0206V27.0215Z" fill="#323231"/>
<path id="Vector_4" d="M39.7496 15.1049C38.7638 15.1049 37.9609 15.7659 37.9609 16.8936C37.9609 17.2633 38.0291 17.6517 38.2223 17.9374C38.5444 18.4135 39.1326 18.6814 39.7496 18.6814C40.7355 18.6814 41.5383 17.8795 41.5383 16.8927C41.5383 16.3475 41.3507 15.8537 40.9651 15.526C40.6533 15.2599 40.1912 15.104 39.7496 15.104V15.1049ZM39.7496 18.1091C39.4612 18.1091 39.1662 18.0447 38.958 17.8757C38.6816 17.6526 38.5341 17.2755 38.5341 16.8936C38.5341 16.2233 39.0793 15.6781 39.7496 15.6781C40.0838 15.6781 40.4507 15.7818 40.6701 16.0012C40.8904 16.2215 40.9642 16.5576 40.9642 16.8927C40.9642 17.563 40.419 18.1082 39.7487 18.1082L39.7496 18.1091Z" fill="#323231"/>
</g>
</g>
</g>
<defs>
<clipPath id="clip0_555_42398">
<rect width="42.0306" height="35" fill="white" transform="translate(3.98438 7.5)"/>
</clipPath>
</defs>
</svg>
