<svg viewBox="0 0 221 63" fill="none" xmlns="http://www.w3.org/2000/svg" data-v-52a9621c=""><path d="M6.15039 49.8476V48.6174H7.22764V49.8476H6.15039ZM6.15039 59.421V51.375H7.22764V59.421H6.15039Z" fill="#2D2D2D" data-v-52a9621c=""></path><path d="M9.92578 59.421V51.3749H10.9008V53.3558H11.0103V59.421H9.92578ZM15.6444 59.421V55.3143C15.6444 54.8684 15.6042 54.4558 15.5202 54.0805C15.4362 53.7051 15.3048 53.3781 15.1222 53.0956C14.9396 52.8169 14.7022 52.5976 14.4137 52.4453C14.1216 52.2892 13.771 52.2149 13.3547 52.2149C12.975 52.2149 12.639 52.2817 12.3469 52.4155C12.0547 52.5493 11.8137 52.7426 11.6165 52.9916C11.4193 53.2406 11.2696 53.5453 11.1674 53.9058C11.0651 54.2626 11.014 54.6714 11.014 55.1285L10.2508 54.9613C10.2508 54.1362 10.3932 53.445 10.6744 52.8838C10.9556 52.3226 11.3463 51.899 11.8466 51.6091C12.3469 51.3192 12.9165 51.178 13.5592 51.178C14.034 51.178 14.4466 51.2523 14.8008 51.401C15.155 51.5496 15.4545 51.7503 15.7028 52.003C15.9511 52.2557 16.1483 52.5456 16.298 52.8727C16.4477 53.1997 16.5573 53.5416 16.6267 53.9095C16.6961 54.2737 16.7289 54.6379 16.7289 55.0022V59.421H15.6444Z" fill="#2D2D2D" data-v-52a9621c=""></path><path d="M22.0975 59.6402C21.17 59.6402 20.4068 59.4358 19.8079 59.0308C19.209 58.622 18.8438 58.0571 18.7051 57.3324L19.8042 57.1465C19.9211 57.6037 20.1877 57.9679 20.6076 58.2392C21.0239 58.5105 21.5425 58.6443 22.1559 58.6443C22.7548 58.6443 23.2295 58.5179 23.5765 58.2615C23.9234 58.005 24.095 57.6557 24.095 57.2134C24.095 56.9644 24.0402 56.7638 23.9307 56.6077C23.8211 56.4516 23.5984 56.3066 23.2624 56.1728C22.9265 56.0391 22.4225 55.8792 21.7543 55.6971C21.0385 55.4965 20.4762 55.2995 20.0708 55.1025C19.6655 54.9056 19.377 54.6751 19.2054 54.415C19.0337 54.1548 18.9497 53.8352 18.9497 53.4562C18.9497 52.999 19.0776 52.5977 19.3295 52.252C19.5815 51.9064 19.9357 51.6388 20.3849 51.4456C20.834 51.2523 21.3562 51.1594 21.9514 51.1594C22.5467 51.1594 23.0798 51.256 23.5509 51.453C24.022 51.65 24.4017 51.925 24.6902 52.2781C24.9787 52.6311 25.1503 53.0399 25.2015 53.5082L24.1023 53.7089C24.0293 53.2369 23.7992 52.8615 23.4121 52.5865C23.0251 52.3115 22.5321 52.1666 21.9368 52.1591C21.3745 52.1443 20.918 52.252 20.5675 52.4825C20.2169 52.7129 20.0416 53.0213 20.0416 53.4041C20.0416 53.6197 20.1037 53.8018 20.2315 53.9504C20.3593 54.1028 20.5894 54.244 20.9217 54.3778C21.2576 54.5116 21.7323 54.6566 22.3531 54.8164C23.0798 55.0059 23.6531 55.2029 24.0658 55.411C24.4821 55.6191 24.7742 55.8644 24.9532 56.1505C25.1284 56.433 25.2161 56.7823 25.2161 57.2023C25.2161 57.9604 24.9386 58.5588 24.3835 58.9936C23.8284 59.4284 23.0689 59.6402 22.0975 59.6402Z" fill="#2D2D2D" data-v-52a9621c=""></path><path d="M27.6289 62.9999V51.375H28.5966V57.4328H28.7135V62.9999H27.6289ZM31.1893 59.6477C30.4626 59.6477 29.8455 59.4619 29.3452 59.0866C28.8413 58.7112 28.4615 58.2021 28.2022 57.5591C27.943 56.9162 27.8151 56.1952 27.8151 55.3925C27.8151 54.5786 27.9466 53.8502 28.2059 53.2147C28.4651 52.5754 28.8522 52.0737 29.3598 51.7058C29.8674 51.3379 30.4919 51.1558 31.2331 51.1558C31.9562 51.1558 32.577 51.3416 33.0919 51.7132C33.6068 52.0849 34.0048 52.594 34.2823 53.2332C34.5562 53.8725 34.695 54.5934 34.695 55.3925C34.695 56.1989 34.5562 56.9199 34.2787 57.5591C34.0011 58.1983 33.5995 58.7075 33.0773 59.0828C32.5551 59.4582 31.927 59.6477 31.1893 59.6477ZM31.0798 58.6257C31.6312 58.6257 32.0913 58.4845 32.4565 58.2021C32.8216 57.9196 33.0955 57.5331 33.2818 57.0425C33.4643 56.552 33.5556 56.002 33.5556 55.3925C33.5556 54.7867 33.4643 54.2404 33.2854 53.7535C33.1065 53.2667 32.8289 52.8802 32.4601 52.5977C32.0913 52.3153 31.6239 52.1741 31.0579 52.1741C30.5065 52.1741 30.05 52.3116 29.6848 52.5829C29.3197 52.8579 29.0494 53.2332 28.8668 53.7201C28.6879 54.2032 28.5966 54.7607 28.5966 55.3925C28.5966 56.0131 28.6879 56.5706 28.8668 57.0574C29.0458 57.5443 29.3196 57.9308 29.6885 58.2095C30.0536 58.4882 30.5174 58.6257 31.0798 58.6257Z" fill="#2D2D2D" data-v-52a9621c=""></path><path d="M36.9668 49.8476V48.6174H38.0441V49.8476H36.9668ZM36.9668 59.421V51.375H38.0441V59.421H36.9668Z" fill="#2D2D2D" data-v-52a9621c=""></path><path d="M41.0469 59.4209V51.3749H42.0146V53.3112L41.8247 53.0585C41.9123 52.8206 42.0255 52.6013 42.168 52.4006C42.3104 52.2 42.4637 52.0327 42.6281 51.9064C42.8326 51.7243 43.0736 51.583 43.3438 51.4864C43.614 51.3898 43.8916 51.334 44.1727 51.3155C44.4503 51.2969 44.7059 51.3192 44.9359 51.3786V52.4081C44.6475 52.3338 44.3334 52.3152 43.9902 52.3561C43.6469 52.3969 43.3328 52.5344 43.0444 52.7723C42.7814 52.9804 42.5842 53.2294 42.4528 53.523C42.3213 53.8129 42.2337 54.1213 42.1899 54.4484C42.146 54.7754 42.1241 55.095 42.1241 55.4147V59.4209H41.0469Z" fill="#2D2D2D" data-v-52a9621c=""></path><path d="M49.7402 59.6477C48.9697 59.6477 48.3014 59.4731 47.7391 59.1274C47.1767 58.7781 46.7385 58.2913 46.4244 57.6595C46.1104 57.0277 45.957 56.2881 45.957 55.4408C45.957 54.56 46.1104 53.8018 46.4172 53.1589C46.7239 52.516 47.1584 52.0254 47.7172 51.6761C48.2759 51.3267 48.9368 51.1558 49.6964 51.1558C50.4779 51.1558 51.1425 51.3379 51.6939 51.7021C52.2453 52.0663 52.6616 52.5903 52.9464 53.2704C53.2276 53.9505 53.359 54.7644 53.3335 55.7084H52.2343V55.3218C52.2161 54.2775 51.9933 53.4897 51.5734 52.9582C51.1498 52.4268 50.5363 52.1592 49.7256 52.1592C48.8748 52.1592 48.2247 52.4379 47.7756 53.0028C47.3264 53.5677 47.1 54.363 47.1 55.4036C47.1 56.4182 47.3264 57.2023 47.7756 57.7635C48.2247 58.3247 48.8674 58.6034 49.6964 58.6034C50.2624 58.6034 50.7554 58.4696 51.179 58.2058C51.6026 57.9419 51.9349 57.5554 52.1796 57.0537L53.1838 57.4476C52.8697 58.1463 52.4096 58.6926 51.8034 59.0754C51.1936 59.4545 50.5071 59.6477 49.7402 59.6477ZM46.7166 55.7046V54.7867H52.7565V55.7046H46.7166Z" fill="#2D2D2D" data-v-52a9621c=""></path><path d="M58.4178 59.6402C57.4903 59.6402 56.7271 59.4358 56.1282 59.0308C55.5293 58.622 55.1642 58.0571 55.0254 57.3324L56.1246 57.1465C56.2414 57.6037 56.508 57.9679 56.9279 58.2392C57.3442 58.5105 57.8628 58.6443 58.4763 58.6443C59.0751 58.6443 59.5499 58.5179 59.8968 58.2615C60.2437 58.005 60.4153 57.6557 60.4153 57.2134C60.4153 56.9644 60.3605 56.7638 60.251 56.6077C60.1414 56.4516 59.9187 56.3066 59.5827 56.1728C59.2468 56.0391 58.7428 55.8792 58.0746 55.6971C57.3588 55.4965 56.7965 55.2995 56.3911 55.1025C55.9858 54.9056 55.6973 54.6751 55.5257 54.415C55.354 54.1548 55.2701 53.8352 55.2701 53.4562C55.2701 52.999 55.3979 52.5977 55.6498 52.252C55.9018 51.9064 56.256 51.6388 56.7052 51.4456C57.1543 51.2523 57.6765 51.1594 58.2718 51.1594C58.867 51.1594 59.4001 51.256 59.8712 51.453C60.3423 51.65 60.7221 51.925 61.0105 52.2781C61.299 52.6311 61.4707 53.0399 61.5218 53.5082L60.4226 53.7089C60.3496 53.2369 60.1195 52.8615 59.7324 52.5865C59.3454 52.3115 58.8524 52.1666 58.2572 52.1591C57.6948 52.1443 57.2383 52.252 56.8878 52.4825C56.5372 52.7129 56.3619 53.0213 56.3619 53.4041C56.3619 53.6197 56.424 53.8018 56.5518 53.9504C56.6796 54.1028 56.9097 54.244 57.242 54.3778C57.5779 54.5116 58.0527 54.6566 58.6735 54.8164C59.4001 55.0059 59.9735 55.2029 60.3861 55.411C60.8024 55.6191 61.0945 55.8644 61.2735 56.1505C61.4488 56.433 61.5364 56.7823 61.5364 57.2023C61.5364 57.9604 61.2589 58.5588 60.7038 58.9936C60.1487 59.4284 59.3892 59.6402 58.4178 59.6402Z" fill="#2D2D2D" data-v-52a9621c=""></path><path d="M66.2324 52.3153V51.375H71.4179V52.3153H66.2324ZM71.4142 59.421C70.9687 59.5139 70.5305 59.5511 70.0996 59.5325C69.6687 59.5139 69.2816 59.4173 68.942 59.2501C68.6024 59.0791 68.3468 58.819 68.1678 58.4585C68.0254 58.1612 67.9487 57.8601 67.9378 57.5517C67.9268 57.2469 67.9195 56.8976 67.9195 56.5037V49.134H68.9895V56.4591C68.9895 56.7972 68.9931 57.0797 69.0004 57.3064C69.0077 57.5331 69.0588 57.7338 69.1501 57.9047C69.3254 58.2392 69.6066 58.4362 69.99 58.4994C70.3735 58.5625 70.8482 58.5477 71.4142 58.4548V59.421Z" fill="#2D2D2D" data-v-52a9621c=""></path><path d="M76.4972 59.6477C75.712 59.6477 75.0401 59.4656 74.4851 59.1051C73.93 58.7409 73.5028 58.2392 73.2033 57.6C72.9039 56.9608 72.7578 56.2249 72.7578 55.3925C72.7578 54.5488 72.9075 53.8093 73.2106 53.1738C73.5137 52.5383 73.9446 52.044 74.5033 51.6872C75.062 51.3304 75.7267 51.1558 76.4972 51.1558C77.2896 51.1558 77.9615 51.3342 78.5202 51.6946C79.0789 52.0551 79.5062 52.5531 79.802 53.1924C80.0977 53.8316 80.2438 54.5637 80.2438 55.3925C80.2438 56.2361 80.0941 56.9794 79.7983 57.6186C79.4989 58.2578 79.0716 58.7558 78.5093 59.1126C77.9469 59.4656 77.275 59.6477 76.4972 59.6477ZM76.4972 58.596C77.3772 58.596 78.0309 58.2987 78.4581 57.7041C78.889 57.1094 79.1008 56.3401 79.1008 55.3887C79.1008 54.415 78.8854 53.642 78.4545 53.066C78.0236 52.4899 77.3699 52.2001 76.4972 52.2001C75.9056 52.2001 75.4199 52.3339 75.0365 52.6052C74.653 52.8765 74.3682 53.2518 74.1783 53.7312C73.9884 54.2106 73.8971 54.7644 73.8971 55.3887C73.8971 56.3587 74.1162 57.1355 74.5544 57.7189C74.9963 58.3024 75.6427 58.596 76.4972 58.596Z" fill="#2D2D2D" data-v-52a9621c=""></path><path d="M85.8008 59.4209V48.6917H86.8853V53.3632H86.7685V59.4209H85.8008ZM89.3575 59.6476C88.6309 59.6476 88.0137 59.4618 87.5134 59.0864C87.0095 58.7111 86.6297 58.2019 86.3704 57.559C86.1112 56.916 85.9834 56.1951 85.9834 55.3923C85.9834 54.5784 86.1148 53.85 86.3741 53.2145C86.6334 52.5753 87.0204 52.0736 87.528 51.7057C88.0356 51.3377 88.6601 51.1556 89.4014 51.1556C90.1244 51.1556 90.7452 51.3414 91.2601 51.7131C91.775 52.0847 92.173 52.5939 92.4505 53.2331C92.7244 53.8723 92.8632 54.5933 92.8632 55.3923C92.8632 56.1988 92.7244 56.9198 92.4469 57.559C92.1694 58.1982 91.7677 58.7073 91.2455 59.0827C90.7269 59.4581 90.0952 59.6476 89.3575 59.6476ZM89.248 58.6256C89.7994 58.6256 90.2595 58.4844 90.6247 58.2019C90.9899 57.9195 91.2637 57.533 91.45 57.0424C91.6326 56.5518 91.7239 56.0018 91.7239 55.3923C91.7239 54.7865 91.6326 54.2402 91.4536 53.7534C91.2747 53.2665 90.9972 52.88 90.6283 52.5976C90.2595 52.3151 89.7921 52.1739 89.2261 52.1739C88.6747 52.1739 88.2182 52.3114 87.853 52.5827C87.4879 52.8577 87.2176 53.2331 87.0351 53.7199C86.8561 54.2031 86.7648 54.7605 86.7648 55.3923C86.7648 56.013 86.8561 56.5704 87.0351 57.0573C87.214 57.5441 87.4879 57.9306 87.8567 58.2094C88.2255 58.4881 88.6893 58.6256 89.248 58.6256Z" fill="#2D2D2D" data-v-52a9621c=""></path><path d="M98.2901 59.6477C97.505 59.6477 96.8331 59.4656 96.278 59.1051C95.723 58.7409 95.2957 58.2392 94.9963 57.6C94.6969 56.9608 94.5508 56.2249 94.5508 55.3925C94.5508 54.5488 94.7005 53.8093 95.0036 53.1738C95.3067 52.5383 95.7376 52.044 96.2963 51.6872C96.855 51.3304 97.5196 51.1558 98.2901 51.1558C99.0826 51.1558 99.7545 51.3342 100.313 51.6946C100.872 52.0551 101.299 52.5531 101.595 53.1924C101.891 53.8316 102.037 54.5637 102.037 55.3925C102.037 56.2361 101.887 56.9794 101.591 57.6186C101.292 58.2578 100.865 58.7558 100.302 59.1126C99.7435 59.4656 99.0716 59.6477 98.2901 59.6477ZM98.2901 58.596C99.1702 58.596 99.8238 58.2987 100.251 57.7041C100.682 57.1094 100.894 56.3401 100.894 55.3887C100.894 54.415 100.678 53.642 100.247 53.066C99.8166 52.4899 99.1629 52.2001 98.2901 52.2001C97.6986 52.2001 97.2129 52.3339 96.8294 52.6052C96.446 52.8765 96.1612 53.2518 95.9713 53.7312C95.7814 54.2106 95.6901 54.7644 95.6901 55.3887C95.6901 56.3587 95.9092 57.1355 96.3474 57.7189C96.7893 58.3024 97.4356 58.596 98.2901 58.596Z" fill="#2D2D2D" data-v-52a9621c=""></path><path d="M107.468 59.6477C106.683 59.6477 106.011 59.4656 105.456 59.1051C104.897 58.7409 104.473 58.2392 104.174 57.6C103.878 56.9608 103.729 56.2249 103.729 55.3925C103.729 54.5488 103.878 53.8093 104.181 53.1738C104.484 52.5383 104.915 52.044 105.474 51.6872C106.033 51.3304 106.697 51.1558 107.468 51.1558C108.257 51.1558 108.932 51.3342 109.491 51.6946C110.05 52.0551 110.477 52.5531 110.773 53.1924C111.068 53.8316 111.215 54.5637 111.215 55.3925C111.215 56.2361 111.065 56.9794 110.769 57.6186C110.47 58.2578 110.042 58.7558 109.48 59.1126C108.918 59.4656 108.249 59.6477 107.468 59.6477ZM107.468 58.596C108.348 58.596 109.002 58.2987 109.429 57.7041C109.86 57.1094 110.072 56.3401 110.072 55.3887C110.072 54.415 109.856 53.642 109.425 53.066C108.994 52.4899 108.341 52.2001 107.468 52.2001C106.876 52.2001 106.391 52.3339 106.007 52.6052C105.624 52.8765 105.339 53.2518 105.149 53.7312C104.959 54.2106 104.868 54.7644 104.868 55.3887C104.868 56.3587 105.087 57.1355 105.525 57.7189C105.967 58.3024 106.613 58.596 107.468 58.596Z" fill="#2D2D2D" data-v-52a9621c=""></path><path d="M113.332 59.4209L113.339 48.6917H114.424V55.2474L117.951 51.3712H119.387L115.68 55.396L119.869 59.4209H118.302L114.42 55.5447V59.4209H113.332Z" fill="#2D2D2D" data-v-52a9621c=""></path><path d="M150.472 26.6052C148.519 26.5829 147.084 27.9988 147.069 29.9611C147.054 31.9456 148.453 33.4396 150.345 33.4694C152.309 33.4991 153.839 31.994 153.854 30.0168C153.869 28.1103 152.397 26.6275 150.472 26.6052ZM153.879 22.2756C153.879 21.8445 153.865 21.4654 153.883 21.09C153.909 20.6069 154.015 20.4805 154.478 20.4694C156.063 20.4397 157.652 20.3988 159.226 20.6106C160.365 20.763 161 21.365 161.285 22.4985C161.428 23.0597 161.515 23.6321 161.512 24.2118C161.501 29.0766 161.541 33.9376 161.406 38.8024C161.373 39.9656 161.161 41.0954 160.829 42.2066C160.215 44.2655 158.981 45.8078 157.144 46.867C155.384 47.8816 153.47 48.3907 151.473 48.5617C147.788 48.8776 144.257 48.3052 140.945 46.5771C139.455 45.8004 139.725 45.845 140.434 44.7226C141.19 43.5297 141.957 42.3404 142.723 41.1549C143.118 40.5454 143.169 40.5305 143.797 40.891C144.893 41.5228 146.014 42.0877 147.266 42.307C148.595 42.5374 149.91 42.4891 151.192 42.0543C152.755 41.5228 153.704 40.0623 153.573 38.4419C153.554 38.2264 153.562 37.9922 153.321 37.8919C153.109 37.8064 152.974 37.9774 152.824 38.0889C148.471 41.2887 142.65 39.6683 140.573 34.6363C138.798 30.3364 139.262 26.3116 142.194 22.6584C144.747 19.4771 149.852 18.8119 152.992 21.707C153.226 21.9411 153.456 22.1864 153.879 22.2756Z" fill="#00D5E0" data-v-52a9621c=""></path><path d="M110.739 33.4769C112.641 33.4918 114.091 32.0238 114.109 30.069C114.124 28.0918 112.736 26.6313 110.804 26.6053C108.822 26.5756 107.354 28.0101 107.339 29.9872C107.324 31.9235 108.822 33.462 110.739 33.4769ZM106.82 37.7248C106.82 38.2265 106.835 38.6353 106.817 39.0404C106.795 39.5272 106.726 39.6127 106.284 39.6164C104.275 39.6276 102.263 39.6276 100.255 39.6127C99.8092 39.609 99.7361 39.5123 99.6923 39.0515C99.6704 38.8137 99.6741 38.5721 99.6741 38.3305C99.6741 31.039 99.6777 23.7474 99.6741 16.4558C99.6741 15.8054 99.696 15.1551 99.7617 14.5084C99.926 12.9438 100.689 12.1894 102.23 12.063C103.811 11.9367 105.396 11.9738 106.981 11.985C107.617 11.9887 107.66 12.0296 107.664 12.6911C107.675 14.5196 107.671 16.348 107.675 18.1765C107.675 19.139 107.664 20.1016 107.679 21.0641C107.69 21.6848 107.795 21.7517 108.358 21.4915C108.811 21.2834 109.245 21.0418 109.687 20.8151C112.835 19.1874 116.267 19.7745 118.721 22.35C120.35 24.0596 121.197 26.1407 121.457 28.4746C121.756 31.1542 121.296 33.6962 119.959 36.0524C117.987 39.5309 114.058 41.0584 110.315 39.7985C109.38 39.4826 108.559 38.9772 107.814 38.3305C107.551 38.1038 107.295 37.8585 106.82 37.7248Z" fill="#2D2D2D" data-v-52a9621c=""></path><path d="M12.1175 15.9243C12.6543 16.6825 13.213 17.3365 13.9251 17.8197C14.1734 17.9869 14.1332 18.2285 14.1332 18.4626C14.1332 19.8823 14.1332 21.3019 14.1332 22.7216C14.1332 24.3345 14.1369 25.9474 14.1405 27.5604C14.1405 28.0918 14.1734 28.6158 14.2756 29.1398C14.6956 31.3065 16.1197 32.139 18.1464 31.9383C19.6729 31.7896 20.7392 30.645 20.9583 29.0432C21.0496 28.3743 21.1043 27.7053 21.1043 27.0289C21.1007 24.2379 21.1226 21.4432 21.108 18.6522C21.1043 18.1988 21.2139 17.9014 21.601 17.6413C22.2327 17.2102 22.7184 16.6081 23.1383 15.9801C23.3976 16.0024 23.5364 16.1845 23.6934 16.3145C25.6142 17.8829 27.2392 19.7076 28.4041 21.93C29.2842 23.6098 29.8064 25.3826 29.8173 27.3114C29.8283 28.902 29.8502 30.4926 29.4448 32.0423C28.5794 35.3611 26.5782 37.7507 23.4487 38.9734C19.5925 40.4786 15.6523 40.5789 11.7377 39.0701C10.5801 38.6241 9.5211 37.9886 8.58261 37.1635C6.67277 35.48 5.70507 33.3171 5.53709 30.7862C5.45675 29.5895 5.42023 28.3854 5.44945 27.1813C5.49327 25.4123 5.96434 23.7659 6.74945 22.205C8.01295 19.689 9.85706 17.6859 12.1175 15.9243Z" fill="#2D2D2D" data-v-52a9621c=""></path><path d="M220.998 31.444C220.998 33.8745 221.001 36.3088 220.998 38.7393C220.998 39.542 220.928 39.6164 220.158 39.6164C218.098 39.6201 216.042 39.6201 213.983 39.6126C213.252 39.6089 213.22 39.5681 213.19 38.8434C213.176 38.5312 213.19 38.2116 213.081 37.9143C212.99 37.6653 212.781 37.6169 212.573 37.7805C212.5 37.8399 212.442 37.918 212.38 37.9886C210.459 40.1106 207.457 40.7907 204.777 39.7241C202.352 38.7616 201.198 36.8588 200.869 34.3316C200.778 33.6144 200.745 32.8934 200.749 32.1687C200.753 28.679 200.749 25.1856 200.749 21.6959C200.749 21.5509 200.745 21.406 200.753 21.2611C200.775 20.5401 200.866 20.4397 201.596 20.4435C202.896 20.4472 204.2 20.4583 205.5 20.4806C205.996 20.4881 206.489 20.5624 206.964 20.7222C207.936 21.0418 208.502 21.7182 208.673 22.7365C208.754 23.2122 208.783 23.6916 208.79 24.1747C208.819 26.3414 208.848 28.508 208.892 30.6747C208.903 31.2024 208.914 31.7339 209.093 32.243C209.367 33.0235 209.933 33.4434 210.751 33.4732C211.569 33.4992 212.084 33.1758 212.427 32.4028C212.785 31.5927 212.851 30.7342 212.854 29.8608C212.858 27.1404 212.869 24.42 212.873 21.6996C212.876 20.4546 212.876 20.4472 214.067 20.462C215.25 20.4732 216.433 20.4918 217.616 20.5178C218.138 20.5289 218.657 20.5698 219.154 20.7408C219.95 21.0121 220.49 21.5509 220.727 22.3723C220.928 23.0709 220.998 23.7882 220.998 24.5129C220.994 26.8208 220.994 29.1324 220.998 31.444Z" fill="#00D5E0" data-v-52a9621c=""></path><path d="M175.549 37.7655C175.122 37.9141 174.848 38.178 174.556 38.4158C173.508 39.2706 172.361 39.9284 171.017 40.1551C167.19 40.8018 164.094 38.4976 163.513 34.7923C163.352 33.7703 163.276 32.7372 163.272 31.7003C163.265 28.4261 163.257 25.152 163.254 21.8778C163.254 21.6623 163.246 21.443 163.261 21.2275C163.294 20.7406 163.393 20.6031 163.849 20.5994C165.551 20.5883 167.256 20.5548 168.958 20.6217C170.291 20.6737 171.072 21.5099 171.215 22.8553C171.361 24.2452 171.306 25.6463 171.335 27.0399C171.364 28.4819 171.295 29.9276 171.456 31.3695C171.488 31.6817 171.525 31.9939 171.631 32.2875C171.897 33.0382 172.504 33.4581 173.325 33.4693C174.114 33.4804 174.695 33.1051 174.983 32.3581C175.341 31.4253 175.403 30.433 175.414 29.4482C175.436 26.8467 175.436 24.2489 175.447 21.6474C175.447 21.4542 175.458 21.2609 175.45 21.0714C175.436 20.6997 175.626 20.5474 175.969 20.5511C176.396 20.5548 176.82 20.5511 177.247 20.5548C178.383 20.5622 179.519 20.5697 180.654 20.5883C182.407 20.618 183.203 21.3538 183.426 23.1043C183.488 23.606 183.528 24.1077 183.528 24.6131C183.528 29.2103 183.535 33.8075 183.539 38.4047C183.539 38.5979 183.539 38.7912 183.535 38.9807C183.528 39.3226 183.364 39.5233 183.02 39.5419C180.727 39.6683 178.438 39.724 176.144 39.5456C175.786 39.5196 175.659 39.3152 175.637 38.9844C175.6 38.6091 175.666 38.2226 175.549 37.7655Z" fill="#00D5E0" data-v-52a9621c=""></path><path d="M89.7823 37.9699C89.3733 37.8621 89.1031 38.126 88.8219 38.3341C87.9346 38.9808 86.9997 39.5419 85.9553 39.8913C82.2306 41.1325 78.546 39.0477 77.6952 35.2086C77.5527 34.5768 77.4797 33.9264 77.4797 33.2761C77.4724 29.9536 77.4724 26.6312 77.4688 23.3087C77.4688 22.9445 77.5235 22.5877 77.6294 22.2421C77.8997 21.3613 78.4547 20.8001 79.3786 20.6663C79.6342 20.6292 79.8971 20.6032 80.1564 20.5994C81.6938 20.5846 83.2311 20.5771 84.7685 20.5771C85.4222 20.5771 85.4404 20.5994 85.4368 21.2758C85.4331 24.5017 85.4331 27.7275 85.5536 30.9533C85.5682 31.3881 85.5792 31.8192 85.7289 32.2318C86.0028 32.9788 86.5104 33.4173 87.3101 33.473C88.139 33.5288 88.7489 33.1943 89.0995 32.4473C89.4208 31.7635 89.534 31.0277 89.545 30.2732C89.5851 28.0583 89.6326 25.8433 89.6764 23.632C89.6801 23.4388 89.6837 23.2455 89.702 23.056C89.8481 21.5471 90.6916 20.6998 92.1778 20.5957C92.7439 20.5548 93.3135 20.5474 93.8795 20.5437C94.8984 20.54 95.9135 20.54 96.9324 20.5586C97.4436 20.5697 97.4911 20.6366 97.513 21.1532C97.5166 21.2721 97.513 21.3947 97.513 21.5137C97.513 27.2444 97.5166 32.9751 97.5166 38.702C97.5166 38.847 97.5093 38.9919 97.5166 39.1368C97.5386 39.4825 97.356 39.6125 97.0456 39.62C96.8812 39.6237 96.7133 39.6237 96.5489 39.6237C94.6793 39.6237 92.8132 39.6237 90.9436 39.6237C90.7537 39.6237 90.5638 39.6311 90.3776 39.6163C89.9065 39.5791 89.8627 39.5271 89.8334 39.0514C89.8079 38.6909 89.8773 38.3267 89.7823 37.9699Z" fill="#2D2D2D" data-v-52a9621c=""></path><path d="M68.6019 32.4177C68.591 32.2505 68.58 32.0833 68.5727 31.916C68.5618 31.589 68.4047 31.4217 68.0797 31.4775C67.0098 31.6521 65.9325 31.7711 64.8881 32.0721C64.2235 32.2616 63.8547 32.7076 63.778 33.4026C63.7013 34.0938 63.9606 34.6178 64.5339 34.9858C65.5053 35.6138 66.8235 35.4875 67.6744 34.6736C68.3061 34.0604 68.5983 33.3022 68.6019 32.4177ZM75.6862 33.332C75.6862 35.1604 75.6899 36.9889 75.6826 38.8211C75.6789 39.5644 75.6643 39.5867 74.9157 39.5904C73.0461 39.6015 71.18 39.6015 69.3104 39.5978C68.5764 39.5941 68.5654 39.5755 68.4157 38.8731C68.2988 38.3119 68.2623 38.2822 67.7985 38.5832C66.7943 39.2299 65.7536 39.7948 64.5704 40.0215C62.9418 40.3337 61.3642 40.2073 59.8999 39.3562C57.2159 37.7954 56.3285 34.6736 57.3693 31.9272C57.833 30.7045 58.7167 29.8534 59.8378 29.2476C61.1707 28.5304 62.6022 28.1327 64.0921 27.958C65.1255 27.8391 66.1626 27.7685 67.1997 27.6719C67.9592 27.6013 68.1528 27.2854 67.8898 26.5681C67.7182 26.0998 67.3749 25.8285 66.9258 25.6836C66.064 25.4012 65.2058 25.4235 64.3513 25.7171C63.6064 25.9698 62.9162 26.334 62.2406 26.7354C61.6892 27.0624 61.5943 27.0401 61.1597 26.5495C60.685 26.0144 60.203 25.4829 59.7429 24.9329C58.5305 23.4872 58.64 22.5767 60.1811 21.4915C61.1634 20.7965 62.2845 20.4063 63.4311 20.1053C65.7755 19.4847 68.1126 19.5367 70.4314 20.2316C73.2104 21.0678 74.7258 23.0524 75.3357 25.8583C75.5584 26.8952 75.6789 27.9432 75.6716 29.0061C75.6643 30.4518 75.668 31.8937 75.668 33.3394H75.6862V33.332Z" fill="#2D2D2D" data-v-52a9621c=""></path><path d="M24.1419 12.9623C24.1419 12.193 24.1273 11.5055 23.9739 10.8179C23.3604 8.09382 20.6655 5.3474 16.7362 5.83425C13.6359 6.22075 11.182 9.05637 11.1528 12.3082C11.1491 12.94 11.182 13.5681 11.3901 14.159C11.5435 14.5864 11.3901 14.8056 11.0688 15.0546C9.03478 16.6304 7.31848 18.5035 6.01482 20.7556C5.00694 22.4986 4.33868 24.3605 4.17435 26.3897C4.1634 26.5086 4.14514 26.6275 4.11958 26.7464C4.11227 26.791 4.07941 26.8319 4.05385 26.8765C3.853 26.9025 3.77997 26.7241 3.67042 26.6164C1.80074 24.7767 0.708881 22.5135 0.277979 19.9306C-0.686073 14.1181 0.858601 9.06008 4.89374 4.83825C7.24544 2.378 10.207 1.03638 13.4753 0.363707C15.4399 -0.041381 17.4301 -0.134291 19.402 0.218767C26.0737 1.42288 27.622 8.51006 24.3318 12.8397C24.3135 12.8731 24.2624 12.888 24.1419 12.9623Z" fill="#00D5E0" data-v-52a9621c=""></path><path d="M129.874 40.3782C127.11 40.3484 124.484 39.7724 122.089 38.3007C121.252 37.7878 121.249 37.747 121.935 37C122.6 36.279 123.272 35.5691 123.918 34.837C124.495 34.1829 125.174 33.9339 126.018 34.1458C126.956 34.3799 127.899 34.6103 128.841 34.8333C129.359 34.9597 129.874 34.982 130.342 34.6512C130.897 34.2573 130.908 33.6924 130.363 33.291C130.152 33.1349 129.903 33.0494 129.659 32.9602C128.611 32.5923 127.563 32.2207 126.515 31.849C126.292 31.771 126.069 31.6892 125.85 31.5963C122.344 30.1209 121.234 25.9102 123.568 22.8553C124.879 21.1421 126.664 20.1907 128.746 19.8674C132.062 19.3508 135.184 19.9974 138.101 21.6772C138.185 21.7256 138.262 21.7776 138.346 21.8259C138.635 21.9894 138.697 22.1901 138.467 22.4614C138.248 22.7141 138.05 22.9854 137.839 23.2418C137.141 24.0929 136.425 24.9254 135.783 25.8173C135.355 26.4082 135.071 26.4788 134.373 26.2558C133.606 26.0106 132.839 25.769 132.072 25.5349C131.583 25.3862 131.094 25.3825 130.608 25.5497C130.239 25.6761 129.896 25.8396 129.87 26.3153C129.849 26.6981 130.02 26.9322 130.542 27.1255C131.207 27.3708 131.886 27.5789 132.558 27.8019C133.278 28.0397 133.993 28.2813 134.713 28.5191C138.941 29.9165 139.303 35.231 136.907 37.7321C135.534 39.1629 133.895 40.0251 131.937 40.2481C131.247 40.3224 130.564 40.3819 129.874 40.3782Z" fill="#2D2D2D" data-v-52a9621c=""></path><path d="M55.4184 25.8135C55.4184 30.1692 55.4221 34.5248 55.4148 38.8841C55.4148 39.5345 55.3637 39.5828 54.721 39.5865C52.4971 39.5939 50.2732 39.5939 48.0529 39.5865C47.3591 39.5828 47.2934 39.5159 47.2861 38.7801C47.2715 36.9739 47.2788 35.1714 47.2824 33.3653C47.2897 29.0802 47.308 24.799 47.308 20.5139C47.308 18.7338 47.2313 16.9536 47.3628 15.1735C47.4066 14.5937 47.5161 14.0288 47.6914 13.4788C47.958 12.6426 48.5313 12.152 49.3895 12.0517C51.1532 11.8473 52.9243 11.7767 54.6991 11.8547C55.3089 11.8807 55.3308 11.903 55.36 12.5274C55.3892 13.0811 55.3929 13.6349 55.3929 14.1886C55.3965 18.0648 55.3929 21.9373 55.3929 25.8135C55.4111 25.8135 55.4148 25.8135 55.4184 25.8135Z" fill="#2D2D2D" data-v-52a9621c=""></path><path d="M31.9356 31.3214C31.9356 28.9652 31.932 26.6053 31.9356 24.2491C31.9356 23.5987 31.9941 22.9521 32.1949 22.3277C32.4944 21.4023 33.0896 20.8151 34.0609 20.6813C34.364 20.6405 34.6708 20.5921 34.9775 20.5884C36.2775 20.5736 37.5775 20.5698 38.8775 20.5736C39.5202 20.5736 39.5239 20.5921 39.5641 21.2722C39.575 21.4655 39.575 21.6588 39.6079 21.8483C39.67 22.1976 39.7941 22.2608 40.0899 22.101C40.2141 22.0341 40.3236 21.9375 40.4405 21.8557C41.0174 21.4395 41.5908 21.0121 42.175 20.607C43.1902 19.9009 44.3113 19.7671 45.4981 19.9901C45.845 20.0533 45.9874 20.2391 45.9582 20.5847C45.8961 21.328 45.8377 22.0713 45.772 22.8146C45.6916 23.7474 45.604 24.6839 45.5164 25.6167C45.5018 25.784 45.4908 25.9512 45.4652 26.1184C45.363 26.7539 45.3228 26.7874 44.7093 26.8283C44.2127 26.858 43.7197 26.884 43.2231 26.9323C41.1708 27.1256 40.0023 28.3966 39.984 30.4852C39.9658 32.8897 39.9694 35.2979 39.9658 37.7025C39.9658 38.0629 39.9694 38.4234 39.9621 38.7839C39.9511 39.5644 39.9329 39.5867 39.1551 39.5904C37.0042 39.5941 34.8534 39.5941 32.6988 39.5904C31.9429 39.5867 31.9137 39.5569 31.9137 38.7653C31.9101 36.2865 31.9137 33.8077 31.9137 31.3288H31.9356V31.3214Z" fill="#2D2D2D" data-v-52a9621c=""></path><path d="M193.318 22.5804C193.683 22.3983 193.873 22.0787 194.117 21.826C195.268 20.6516 196.652 20.1908 198.255 20.4138C199.168 20.5401 199.449 20.8672 199.431 21.7926C199.405 23.0227 199.19 24.2342 199.084 25.4532C199.076 25.5238 199.054 25.5944 199.051 25.6651C198.992 26.9807 198.773 26.78 197.765 26.8692C197.156 26.9249 196.535 26.9063 195.936 27.081C194.599 27.4749 193.796 28.3371 193.584 29.7568C193.526 30.1396 193.497 30.5224 193.497 30.9052C193.493 33.4323 193.489 35.9632 193.486 38.4903C193.486 38.7059 193.482 38.9252 193.475 39.1407C193.467 39.3637 193.358 39.5012 193.135 39.5272C192.854 39.557 192.573 39.5978 192.288 39.6127C190.349 39.7205 188.41 39.6573 186.471 39.6573C186.354 39.6573 186.233 39.6499 186.116 39.635C185.602 39.5755 185.518 39.4975 185.51 38.9512C185.499 37.4572 185.503 35.9669 185.499 34.4729C185.496 30.1619 185.492 25.8509 185.496 21.5436C185.496 20.4286 185.521 20.4026 186.613 20.4249C188.077 20.4584 189.545 20.4807 191.01 20.5327C192.058 20.5699 192.7 21.0344 193.015 22.023C193.073 22.2125 193.124 22.3983 193.318 22.5804Z" fill="#00D5E0" data-v-52a9621c=""></path><path d="M22.9487 12.3751C22.956 15.3259 20.5897 17.7639 17.6866 17.7936C14.7871 17.8233 12.3295 15.3296 12.3478 12.3751C12.3624 9.42798 14.7615 7.00117 17.6537 7.00489C20.5641 7.00489 22.945 9.42055 22.9487 12.3751Z" fill="#FFEA00" data-v-52a9621c=""></path><path d="M33.7717 10.1936C32.143 7.02348 29.5905 4.83452 26.4938 3.25134C26.3989 3.20302 26.3003 3.1064 26.1761 3.18072C26.125 3.25505 26.1615 3.31823 26.1907 3.38141C27.0854 5.18758 27.5126 7.07923 27.2424 9.10467C27.2315 9.19758 27.2242 9.29792 27.2388 9.39083C27.2643 9.58037 27.3848 9.6324 27.5419 9.54692C27.6843 9.46516 27.8157 9.35738 27.9472 9.25704C28.6812 8.71073 29.4882 8.32051 30.3537 8.05293C30.518 8.0009 30.6969 7.89312 30.9306 8.07894C29.8826 8.71073 28.7725 9.20501 27.8997 10.0895C28.3817 10.699 28.8711 11.2602 29.2034 11.9254C29.3714 12.2636 29.5941 12.3342 29.9483 12.2636C30.6787 12.115 31.409 12.2041 32.1321 12.3491C32.2745 12.3788 32.4498 12.39 32.4936 12.6055C31.7231 12.6018 30.9635 12.5684 30.2149 12.6873C29.711 12.769 29.6818 12.8136 29.8643 13.2856C30.1054 13.9137 30.2843 14.5603 30.4304 15.2181C30.4596 15.3594 30.4851 15.5043 30.4924 15.6455C30.4961 15.7645 30.5655 15.9094 30.3902 16.0469C30.0141 14.9729 29.6233 13.9434 29.0573 12.9995C28.4986 12.0704 27.8961 11.1747 26.9978 10.4351C26.6107 11.6504 26.1104 12.6798 25.4166 13.6089C25.1317 13.9917 24.8359 14.3708 24.5146 14.7239C24.2918 14.9691 24.3357 15.1327 24.573 15.3036C24.668 15.3742 24.7593 15.4523 24.8505 15.5266C26.6472 17.0801 28.2101 18.8379 29.3823 20.9377C29.8388 21.7516 30.1893 22.6175 30.6202 23.4537C30.6714 23.1452 30.7152 22.8368 30.7736 22.532C31.1315 20.6218 32.395 19.4363 34.2427 19.2765C35.2689 19.1873 35.2689 19.1873 35.404 18.1318C35.4149 18.0352 35.4222 17.9386 35.4296 17.8456C35.6012 15.1327 35.0023 12.5869 33.7717 10.1936Z" fill="#ABE532" data-v-52a9621c=""></path></svg>